<svg xmlns="http://www.w3.org/2000/svg" viewBox="0 0 500 500" width="500" height="500">
  <style>
    .st0{fill:#F8F9FA;}
    .st1{fill:#007BFF;}
    .st2{fill:#6C757D;}
    .st3{fill:#FFFFFF;}
  </style>
  <circle class="st0" cx="250" cy="250" r="200"/>
  <g>
    <path class="st1" d="M250,120c-71.8,0-130,58.2-130,130s58.2,130,130,130s130-58.2,130-130S321.8,120,250,120z M250,350
      c-55.2,0-100-44.8-100-100s44.8-100,100-100s100,44.8,100,100S305.2,350,250,350z"/>
    <path class="st1" d="M270,230h-40v-60c0-5.5-4.5-10-10-10s-10,4.5-10,10v70c0,5.5,4.5,10,10,10h50c5.5,0,10-4.5,10-10
      S275.5,230,270,230z"/>
  </g>
  <g>
    <path class="st2" d="M130,390h-20v-15h20V390z M150,375h-20v15h20V375z M170,375h-20v15h20V375z M190,375h-20v15h20V375z
      M210,375h-20v15h20V375z M230,375h-20v15h20V375z M250,375h-20v15h20V375z M270,375h-20v15h20V375z M290,375h-20v15h20V375z
      M310,375h-20v15h20V375z M330,375h-20v15h20V375z M350,375h-20v15h20V375z M370,375h-20v15h20V375z M390,375h-20v15h20V375z"/>
  </g>
  <g>
    <circle class="st3" cx="180" cy="200" r="15"/>
    <circle class="st3" cx="320" cy="200" r="15"/>
    <path class="st3" d="M320,260c0,38.7-31.3,70-70,70s-70-31.3-70-70H320z"/>
  </g>
</svg>
