<svg width="41" height="40" viewBox="0 0 41 40" fill="none" xmlns="http://www.w3.org/2000/svg">
<g clip-path="url(#clip0_5344_78793)">
<path d="M35.0189 13.9647C36.3376 12.6913 37.1593 10.9066 37.1593 8.93378C37.1593 6.98472 36.3368 5.10956 34.903 3.78846C34.6609 3.56542 34.2846 3.58128 34.0615 3.82261C33.8384 4.06471 33.8543 4.44104 34.0956 4.66417C35.2857 5.76057 35.9684 7.31659 35.9684 8.93378C35.9684 13.2082 31.4946 15.9816 27.7014 14.1885C27.5538 14.1188 27.4555 13.9737 27.4459 13.8108C27.3977 13.0025 27.0483 10.4316 24.5867 8.63792C24.4549 8.5419 24.3845 8.38182 24.4042 8.21995C24.8575 4.50925 28.729 2.13823 32.2752 3.52573C32.5816 3.64479 32.927 3.49401 33.0469 3.18753C33.1667 2.88104 33.0152 2.53573 32.7087 2.41667C28.5697 0.799168 24.0491 3.41682 23.2812 7.68847C23.2645 7.78128 23.1653 7.83253 23.0779 7.79714C21.392 7.11526 19.5073 7.12487 17.8463 7.79737C17.7591 7.83261 17.6604 7.78167 17.6438 7.68917C17.0552 4.42432 14.193 1.9387 10.7606 1.9387C10.7606 1.9387 10.7606 1.9387 10.7598 1.9387C7.77242 1.9387 5.11359 3.8369 4.14344 6.66081C4.03625 6.97198 4.20219 7.31026 4.51336 7.41737C4.82375 7.52378 5.16281 7.35862 5.26992 7.04745C6.07414 4.70386 8.28117 3.12956 10.7605 3.12956C13.7188 3.12956 16.1673 5.35456 16.5203 8.21878C16.5402 8.38011 16.4712 8.54003 16.34 8.63596C14.6657 9.86128 13.6125 11.7704 13.483 13.8092C13.4727 13.9716 13.3754 14.1164 13.2284 14.186C9.57266 15.917 5.13461 13.4159 4.96102 9.17346C4.9475 8.84479 4.67125 8.59073 4.3418 8.60268C4.01312 8.6162 3.75828 8.89323 3.77102 9.2219C3.84328 10.9844 4.56727 12.6333 5.81453 13.8789C2.63406 14.4133 0.203125 17.1856 0.203125 20.5153V30.3628C0.203125 31.662 1.25633 32.7152 2.55547 32.7152H9.90539V35.7132C9.90539 37.0127 10.959 38.0662 12.2585 38.0661L28.2025 38.0653C29.4696 38.0367 30.5009 36.9817 30.5009 35.713V32.7152H37.85C39.1496 32.7152 40.2031 31.6617 40.2031 30.3621V20.5153C40.2031 17.3364 37.9866 14.6657 35.0189 13.9647ZM17.7508 9.1537C21.3837 7.22495 25.8951 9.63862 26.2448 13.7861C26.2424 13.7861 26.2408 13.7861 26.2392 13.7869H26.2448C26.2822 14.2153 26.2672 14.6537 26.2241 14.977C26.2186 14.9778 26.2123 14.9778 26.2059 14.9778H26.2241C26.0729 16.5141 25.1512 18.1445 23.6432 19.1354H23.64V19.1378C22.4055 19.9484 20.9691 20.2221 19.626 20.0269V20.0237C19.6252 20.0245 19.6252 20.0253 19.6252 20.0269C18.9369 19.9458 18.0444 19.6384 17.2809 19.1353C13.5695 16.6953 13.8621 11.211 17.7508 9.1537ZM28.1604 36.8753H12.2585C11.6166 36.8753 11.0963 36.3549 11.0963 35.713V25.8662C11.0963 24.6229 11.4987 23.448 12.2601 22.4691C12.4617 22.2095 12.4149 21.8356 12.1553 21.6331C11.8957 21.4314 11.5218 21.4782 11.3193 21.7378C10.3944 22.9279 9.90539 24.3553 9.90539 25.8661V31.5242H2.55547C1.91398 31.5242 1.39398 31.0042 1.39398 30.3628V20.5153C1.39398 17.4562 3.87391 14.9763 6.93305 14.9763H7.23313C9.01492 16.0192 11.1591 16.203 13.061 15.5391C13.3152 15.4504 13.5871 15.6024 13.6479 15.8646C13.8909 16.9124 14.37 17.8707 15.0258 18.6804C15.2282 18.9304 15.1024 19.3041 14.793 19.392C14.264 19.5422 13.7539 19.7568 13.2763 20.0326C12.9913 20.1978 12.8937 20.5614 13.058 20.8464C13.2223 21.1314 13.5867 21.229 13.8717 21.0647C15.2167 20.2868 16.4446 20.3222 16.8334 20.3278C16.9088 20.3289 16.982 20.3497 17.0477 20.3867C19.2021 21.5965 21.8104 21.5512 23.8598 20.3964C23.9349 20.354 24.0202 20.3315 24.1062 20.3367C26.997 20.5097 29.31 22.9167 29.31 25.8662C29.3101 27.8541 29.3101 33.7253 29.3101 35.7131C29.31 36.3582 28.7719 36.8753 28.1604 36.8753ZM39.0123 30.3628C39.0123 31.0035 38.4907 31.5243 37.85 31.5243H30.5009V25.8662C30.5009 22.6866 28.2851 20.0151 25.3159 19.3149C26.4602 18.211 27.1539 16.802 27.376 15.3478C29.3646 16.2184 31.7211 16.121 33.6764 14.9803C36.6361 15.0874 39.0123 17.5295 39.0123 20.5153V30.3628Z" fill="black"/>
</g>
<defs>
<clipPath id="clip0_5344_78793">
<rect width="40" height="40" fill="white" transform="translate(0.203125)"/>
</clipPath>
</defs>
</svg>
